<svg xmlns="http://www.w3.org/2000/svg" viewBox="-20 44 1201 1071"><path d="M716.799 627.999C787.491 627.999 844.799 570.692 844.799 499.999C844.799 429.307 787.491 372 716.799 372C646.106 372 588.799 429.307 588.799 499.999C588.799 570.692 646.106 627.999 716.799 627.999Z" fill="white"><path fill-rule="evenodd" clip-rule="evenodd" d="M338.371 644.575L470.147 568.479C464.131 546.655 460.803 523.743 460.803 500C460.803 358.624 575.427 244 716.803 244C788.355 244 852.995 273.376 899.395 320.672L1031.17 244.576L993.795 179.872C965.251 130.464 912.515 100 855.491 100H578.051C520.963 100 468.291 130.464 439.747 179.872L300.995 420.128C272.451 469.536 272.451 530.4 300.995 579.871L338.371 644.575Z" fill="white"><path fill-rule="evenodd" clip-rule="evenodd" d="M1095.24 355.425L963.46 431.521C969.476 453.345 972.804 476.257 972.804 500.001C972.804 641.376 858.181 756 716.805 756C645.253 756 580.613 726.624 534.213 679.328L402.437 755.424L439.813 820.128C468.357 869.536 521.093 900 578.117 900H855.557C912.645 900 965.316 869.536 993.86 820.128L1132.61 579.873C1161.16 530.465 1161.16 469.601 1132.61 420.129L1095.24 355.425Z" fill="white"><path fill-rule="evenodd" clip-rule="evenodd" d="M224.064 662.687H166.4C131.072 662.687 102.4 691.358 102.4 726.686C102.4 762.014 131.072 790.686 166.4 790.686H297.92L224 662.687H224.064Z" fill="white"><path fill-rule="evenodd" clip-rule="evenodd" d="M168.32 435.999H63.9999C28.672 435.999 0 464.671 0 499.999C0 535.327 28.672 563.999 63.9999 563.999H168.32C150.464 523.231 150.464 476.767 168.32 435.999Z" fill="white"><path fill-rule="evenodd" clip-rule="evenodd" d="M224.64 336.287L298.56 208.287H166.4C131.072 208.287 102.4 236.959 102.4 272.287C102.4 307.615 131.072 336.287 166.4 336.287H224.64Z" fill="white"></svg>